<?xml version="1.0" encoding="utf-8"?>
<!-- Generator: Adobe Illustrator 25.2.1, SVG Export Plug-In . SVG Version: 6.00 Build 0)  -->
<svg version="1.1" id="Layer_1" xmlns="http://www.w3.org/2000/svg" xmlns:xlink="http://www.w3.org/1999/xlink" x="0px" y="0px"
	 viewBox="0 0 24 24" style="enable-background:new 0 0 24 24;" xml:space="preserve">
<style type="text/css">
	.st0{fill:#FFFFFF;}
</style>
<path class="st0" d="M21.1,12h-14c-0.4,0-0.6-0.3-0.6-0.6s0.3-0.6,0.6-0.6h14l-4.1-4.1c-0.3-0.3-0.3-0.7,0-0.9
	c0.3-0.3,0.7-0.3,0.9,0l5.2,5.2c0.3,0.3,0.3,0.7,0,0.9L18,17c-0.3,0.3-0.7,0.3-0.9,0c-0.3-0.3-0.3-0.7,0-0.9L21.1,12L21.1,12z
	 M15.3,22.4c0.4,0,0.6,0.3,0.6,0.6c0,0.4-0.3,0.6-0.6,0.6H4.9c-1.8,0-3.2-1.5-3.2-3.2V3.6c0-1.8,1.5-3.2,3.2-3.2h10.4
	c0.4,0,0.6,0.3,0.6,0.6s-0.3,0.6-0.6,0.6H4.9c-1.1,0-1.9,0.9-1.9,1.9v16.9c0,1.1,0.9,1.9,1.9,1.9H15.3z"/>
</svg>
