<?xml version="1.0" encoding="utf-8"?>
<!-- Generator: Adobe Illustrator 25.2.1, SVG Export Plug-In . SVG Version: 6.00 Build 0)  -->
<svg version="1.1" id="Layer_1" xmlns="http://www.w3.org/2000/svg" xmlns:xlink="http://www.w3.org/1999/xlink" x="0px" y="0px"
	 viewBox="0 0 24 24" style="enable-background:new 0 0 24 24;" xml:space="preserve">
<style type="text/css">
	.st0{fill:#FFFFFF;}
</style>
<path class="st0" d="M15,12H1c-0.4,0-0.6-0.3-0.6-0.6s0.3-0.6,0.6-0.6h14l-4.1-4.1c-0.3-0.3-0.3-0.7,0-0.9c0.3-0.3,0.7-0.3,0.9,0
	l5.2,5.2c0.3,0.3,0.3,0.7,0,0.9L11.8,17c-0.3,0.3-0.7,0.3-0.9,0c-0.3-0.3-0.3-0.7,0-0.9L15,12L15,12z M10.1,1.6
	C9.7,1.6,9.4,1.3,9.4,1s0.3-0.6,0.6-0.6h10.4c1.8,0,3.2,1.5,3.2,3.2v16.9c0,1.8-1.5,3.2-3.2,3.2H10.1c-0.4,0-0.6-0.3-0.6-0.6
	c0-0.4,0.3-0.6,0.6-0.6h10.4c1.1,0,1.9-0.9,1.9-1.9V3.6c0-1.1-0.9-1.9-1.9-1.9H10.1z"/>
</svg>
