<?xml version="1.0" encoding="utf-8"?>
<!-- Generator: Adobe Illustrator 25.2.1, SVG Export Plug-In . SVG Version: 6.00 Build 0)  -->
<svg version="1.1" id="Layer_1" xmlns="http://www.w3.org/2000/svg" xmlns:xlink="http://www.w3.org/1999/xlink" x="0px" y="0px"
	 viewBox="0 0 1918 322" style="enable-background:new 0 0 1918 322;" xml:space="preserve">
<style type="text/css">
	.st0{fill:#1E1F30;}
	.st1{fill:#FFFFFF;}
	.st2{fill:#F1984D;}
	.st3{clip-path:url(#SVGID_2_);}
	.st4{clip-path:url(#SVGID_4_);fill:#FFFFFF;}
	.st5{clip-path:url(#SVGID_6_);}
	.st6{clip-path:url(#SVGID_8_);fill:#FFFFFF;}
	.st7{clip-path:url(#SVGID_10_);}
	.st8{clip-path:url(#SVGID_12_);fill:#FFFFFF;}
	.st9{clip-path:url(#SVGID_14_);}
	.st10{clip-path:url(#SVGID_16_);fill:#FFFFFF;}
	.st11{clip-path:url(#SVGID_18_);}
	.st12{clip-path:url(#SVGID_20_);fill:#FFFFFF;}
	.st13{clip-path:url(#SVGID_22_);}
	.st14{clip-path:url(#SVGID_24_);fill:#FFFFFF;}
	.st15{clip-path:url(#SVGID_26_);}
	.st16{clip-path:url(#SVGID_28_);fill:#FFFFFF;}
	.st17{clip-path:url(#SVGID_30_);}
	.st18{clip-path:url(#SVGID_32_);fill:#FFFFFF;}
	.st19{clip-path:url(#SVGID_34_);}
	.st20{clip-path:url(#SVGID_36_);fill:#FFFFFF;}
	.st21{clip-path:url(#SVGID_38_);}
	.st22{clip-path:url(#SVGID_40_);fill:#FFFFFF;}
</style>
<g>
	<g>
		<path class="st1" d="M347.05,211.55v-78.66h-21.16v-18.22l22.24-1.39l2.89-39.89h20.1v39.89h38.54v19.61h-38.54v79.08
			c0,17.39,5.6,27.47,22,27.47c5.05,0,11.58-1.91,16.21-3.82l4.65,18.16c-7.98,2.71-17.51,5.27-26.39,5.27
			C357.31,259.04,347.05,239.85,347.05,211.55z"/>
		<path class="st1" d="M435.88,68.48c0-9.45,7.27-15.55,16.63-15.55s16.63,6.1,16.63,15.55c0,9.08-7.27,15.55-16.63,15.55
			S435.88,77.57,435.88,68.48z M440.28,113.27h24.07v142.26h-24.07V113.27z"/>
		<path class="st1" d="M500.24,184.59c0-47.47,32.07-74.83,68.44-74.83c18.67,0,31.61,7.7,41.62,16.7l-12.31,15.92
			c-8.29-7.49-17.04-12.57-28.23-12.57c-25.76,0-44.65,22.19-44.65,54.78s17.84,54.41,44,54.41c13,0,24.53-6.32,33.4-14.17
			l10.44,16.13c-12.78,11.4-28.92,18.08-45.99,18.08C529.1,259.04,500.24,231.69,500.24,184.59z"/>
		<path class="st1" d="M642.79,47.04h23.64v141.2h0.8l60.73-74.97h26.69L707,170.45l53.91,85.08h-26.32l-41.47-68.37l-26.69,31.03
			v37.34h-23.64V47.04z"/>
		<path class="st1" d="M775.62,184.59c0-46.3,31.2-74.83,63.95-74.83c36.28,0,56.77,26.06,56.77,66.75c0,5.08-0.43,10.16-1.12,13.67
			h-95.8c1.72,30.14,20.15,49.68,47.26,49.68c13.65,0,24.86-4.41,35.4-11.37l8.62,15.79c-12.47,8.16-27.63,14.75-46.97,14.75
			C805.8,259.04,775.62,231.32,775.62,184.59z M875.06,172.95c0-28.51-12.82-44-35.07-44c-20,0-37.87,16.06-40.8,44H875.06z"/>
		<path class="st1" d="M929.87,113.27h19.89l2.03,25.91h0.8c9.9-18.05,24.44-29.42,40.45-29.42c6.3,0,10.72,0.8,15.18,2.93
			l-4.5,21.12c-4.9-1.54-8.1-2.34-13.8-2.34c-12.01,0-26.37,8.66-35.98,32.72v91.34h-24.07V113.27z"/>
		<path class="st1" d="M1044.41,211.55v-78.66h-21.16v-18.22l22.24-1.39l2.89-39.89h20.1v39.89h38.54v19.61h-38.54v79.08
			c0,17.39,5.6,27.47,22,27.47c5.05,0,11.58-1.91,16.21-3.82l4.65,18.16c-7.98,2.71-17.51,5.27-26.39,5.27
			C1054.66,259.04,1044.41,239.85,1044.41,211.55z"/>
		<path class="st1" d="M1147.88,113.27h19.89l2.03,25.91h0.8c9.9-18.05,24.44-29.42,40.45-29.42c6.3,0,10.72,0.8,15.18,2.93
			l-4.5,21.12c-4.9-1.54-8.1-2.34-13.8-2.34c-12.01,0-26.37,8.66-35.98,32.72v91.34h-24.07V113.27z"/>
		<path class="st1" d="M1239.15,218.6c0-30.99,26.74-46.48,87.37-53.08c-0.06-18.3-6.13-35.93-29.36-35.93
			c-16.45,0-31.27,7.8-42.42,15.25l-9.42-16.5c13.09-8.59,33.05-18.58,55.88-18.58c34.71,0,49.4,23.08,49.4,58.49v87.28h-19.89
			l-2.03-17.01h-0.8c-13.56,11.27-29.39,20.52-47.04,20.52C1257.02,259.04,1239.15,244.26,1239.15,218.6z M1326.52,220.82v-39.5
			c-47.67,5.73-63.79,17.41-63.79,35.59c0,16.16,10.97,22.74,24.93,22.74C1301.41,239.65,1312.75,232.96,1326.52,220.82z"/>
		<path class="st1" d="M1383.43,184.59c0-47.47,32.07-74.83,68.44-74.83c18.67,0,31.61,7.7,41.62,16.7l-12.31,15.92
			c-8.29-7.49-17.04-12.57-28.23-12.57c-25.76,0-44.65,22.19-44.65,54.78s17.84,54.41,44,54.41c13,0,24.53-6.32,33.4-14.17
			l10.44,16.13c-12.78,11.4-28.92,18.08-45.99,18.08C1412.29,259.04,1383.43,231.69,1383.43,184.59z"/>
		<path class="st1" d="M1525.98,47.04h23.64v141.2h0.8l60.73-74.97h26.69l-47.65,57.17l53.91,85.08h-26.32l-41.47-68.37
			l-26.69,31.03v37.34h-23.64V47.04z"/>
		<path class="st1" d="M1658.8,184.59c0-46.3,31.2-74.83,63.95-74.83c36.28,0,56.77,26.06,56.77,66.75c0,5.08-0.43,10.16-1.12,13.67
			h-95.8c1.72,30.14,20.15,49.68,47.26,49.68c13.65,0,24.86-4.41,35.4-11.37l8.62,15.79c-12.47,8.16-27.63,14.75-46.97,14.75
			C1688.99,259.04,1658.8,231.32,1658.8,184.59z M1758.25,172.95c0-28.51-12.82-44-35.07-44c-20,0-37.87,16.06-40.8,44H1758.25z"/>
		<path class="st1" d="M1813.06,113.27h19.89l2.03,25.91h0.8c9.9-18.05,24.44-29.42,40.45-29.42c6.3,0,10.72,0.8,15.18,2.93
			l-4.5,21.12c-4.9-1.54-8.1-2.34-13.8-2.34c-12.01,0-26.37,8.66-35.98,32.72v91.34h-24.07V113.27z"/>
	</g>
</g>
<g id="Artwork_2_10_">
	<g>
		<defs>
			
				<rect id="SVGID_33_" x="16.65" y="87.58" transform="matrix(0.7071 -0.7071 0.7071 0.7071 -116.016 125.8063)" width="154.41" height="230.73"/>
		</defs>
		<clipPath id="SVGID_2_">
			<use xlink:href="#SVGID_33_"  style="overflow:visible;"/>
		</clipPath>
		<g class="st3">
			<defs>
				
					<rect id="SVGID_35_" x="16.65" y="87.58" transform="matrix(0.7071 -0.7071 0.7071 0.7071 -116.016 125.8063)" width="154.41" height="230.73"/>
			</defs>
			<clipPath id="SVGID_4_">
				<use xlink:href="#SVGID_35_"  style="overflow:visible;"/>
			</clipPath>
			<path class="st4" d="M147.62,165.73c5-5,13.19-5,18.2,0l9.1,9.1c5,5,5,13.19,0,18.2l-22.75,22.75c-5,5-5,13.19,0,18.2
				l22.75,22.75c5,5,5,13.19,0,18.2l-9.1,9.1c-5,5-13.19,5-18.2,0l-22.75-22.75c-5-5-13.19-5-18.2,0l-22.75,22.75
				c-5,5-13.19,5-18.2,0l-9.1-9.1c-5-5-5-13.19,0-18.2l22.75-22.75c5-5,5-13.19,0-18.2L15.7,152.08c-5-5-5-13.19,0-18.2l9.1-9.1
				l18.2-18.2l22.75-22.75c5-5,13.19-5,18.2,0l9.1,9.1c5,5,5,13.19,0,18.2l-22.75,22.75c-5,5-5,13.19,0,18.2l36.39,36.39
				c5,5,13.19,5,18.2,0L147.62,165.73z"/>
		</g>
	</g>
</g>
<g id="Artwork_2_9_">
	<g>
		<defs>
			
				<rect id="SVGID_37_" x="101.46" y="8.62" transform="matrix(0.7071 -0.7071 0.7071 0.7071 -35.3375 162.6443)" width="154.41" height="230.73"/>
		</defs>
		<clipPath id="SVGID_6_">
			<use xlink:href="#SVGID_37_"  style="overflow:visible;"/>
		</clipPath>
		<g class="st5">
			<defs>
				
					<rect id="SVGID_39_" x="101.46" y="8.62" transform="matrix(0.7071 -0.7071 0.7071 0.7071 -35.3375 162.6443)" width="154.41" height="230.73"/>
			</defs>
			<clipPath id="SVGID_8_">
				<use xlink:href="#SVGID_39_"  style="overflow:visible;"/>
			</clipPath>
			<path class="st6" d="M124.89,161.2c-5,5-13.19,5-18.2,0l-9.1-9.1c-5-5-5-13.19,0-18.2l22.75-22.75c5-5,5-13.19,0-18.2L97.6,70.21
				c-5-5-5-13.19,0-18.2l9.1-9.1c5-5,13.19-5,18.2,0l22.75,22.75c5,5,13.19,5,18.2,0l22.75-22.75c5-5,13.19-5,18.2,0l9.1,9.1
				c5,5,5,13.19,0,18.2l-22.75,22.75c-5,5-5,13.19,0,18.2l63.69,63.69c5,5,5,13.19,0,18.2l-9.1,9.1l-18.2,18.2l-22.75,22.75
				c-5,5-13.19,5-18.2,0l-9.1-9.1c-5-5-5-13.19,0-18.2l22.75-22.75c5-5,5-13.19,0-18.2l-36.39-36.39c-5-5-13.19-5-18.2,0
				L124.89,161.2z"/>
		</g>
	</g>
</g>
</svg>
